<svg width="96" height="95" viewBox="0 0 96 95" fill="none" xmlns="http://www.w3.org/2000/svg">
<g clip-path="url(#clip0)">
<path opacity="0.35" d="M43.4222 93.9508C48.9015 93.9508 53.3434 89.5012 53.3434 84.0125C53.3434 78.5237 48.9015 74.0742 43.4222 74.0742C37.9429 74.0742 33.501 78.5237 33.501 84.0125C33.501 89.5012 37.9429 93.9508 43.4222 93.9508Z" fill="url(#paint0_linear)"/>
<path d="M14.9346 26.2461L22.5143 33.8389H51.7376" stroke="#001E64" stroke-width="0.9813" stroke-miterlimit="10"/>
<path d="M11.8125 27.5387C14.2579 27.5387 16.2403 25.5529 16.2403 23.1034C16.2403 20.6538 14.2579 18.668 11.8125 18.668C9.36714 18.668 7.38477 20.6538 7.38477 23.1034C7.38477 25.5529 9.36714 27.5387 11.8125 27.5387Z" stroke="#001E64" stroke-width="0.9813" stroke-miterlimit="10"/>
<path d="M8.28516 40.9219L12.6379 45.267H51.7373" stroke="#001E64" stroke-width="0.9813" stroke-miterlimit="10"/>
<path d="M5.16312 42.2282C7.60851 42.2282 9.59089 40.2424 9.59089 37.7928C9.59089 35.3432 7.60851 33.3574 5.16312 33.3574C2.71773 33.3574 0.735352 35.3432 0.735352 37.7928C0.735352 40.2424 2.71773 42.2282 5.16312 42.2282Z" stroke="#001E64" stroke-width="0.9813" stroke-miterlimit="10"/>
<path d="M51.7376 68.1504H22.5143L14.9346 75.7432" stroke="#001E64" stroke-width="0.9813" stroke-miterlimit="10"/>
<path d="M11.8125 83.3044C14.2579 83.3044 16.2403 81.3186 16.2403 78.869C16.2403 76.4194 14.2579 74.4336 11.8125 74.4336C9.36714 74.4336 7.38477 76.4194 7.38477 78.869C7.38477 81.3186 9.36714 83.3044 11.8125 83.3044Z" stroke="#001E64" stroke-width="0.9813" stroke-miterlimit="10"/>
<path d="M51.7373 56.707H12.6379L8.28516 61.0672" stroke="#001E64" stroke-width="0.9813" stroke-miterlimit="10"/>
<path d="M5.16312 68.6305C7.60851 68.6305 9.59089 66.6447 9.59089 64.1951C9.59089 61.7456 7.60851 59.7598 5.16312 59.7598C2.71773 59.7598 0.735352 61.7456 0.735352 64.1951C0.735352 66.6447 2.71773 68.6305 5.16312 68.6305Z" stroke="#001E64" stroke-width="0.9813" stroke-miterlimit="10"/>
<path d="M33.501 76.4943V84.0119C33.501 89.4998 37.9438 93.9502 43.4222 93.9502C48.015 93.9502 51.8725 90.8078 52.9982 86.5679C54.7092 87.9662 56.9006 88.8232 59.2871 88.8232C64.7655 88.8232 69.2083 84.3728 69.2083 78.8849C69.2083 76.9755 68.668 75.2013 67.7374 73.6978C71.7749 72.4348 74.6867 68.661 74.6867 64.2106C74.6867 61.9252 73.9062 59.8203 72.6154 58.1364C74.4766 56.3321 75.6323 53.8062 75.6323 51.0097C75.6323 48.2131 74.4766 45.6872 72.6154 43.883C73.9062 42.199 74.6867 40.1091 74.6867 37.8088C74.6867 33.3583 71.7599 29.5845 67.7374 28.3215C68.668 26.803 69.2083 25.0288 69.2083 23.1344C69.2083 17.6466 64.7655 13.1961 59.2871 13.1961C56.9006 13.1961 54.7092 14.0381 52.9982 15.4514C51.8875 11.1814 48.0301 8.03906 43.4222 8.03906C37.9438 8.03906 33.501 12.4895 33.501 17.9773V25.4949" stroke="#001E64" stroke-width="1.1457" stroke-miterlimit="10"/>
<path d="M52.3677 46.651C54.1538 43.1779 56 39.7198 57.8461 36.2767L57.9512 36.0663L58.2214 36.0512C62.2589 35.9009 66.2964 35.7956 70.3339 35.7204L82.4465 35.4799L83.0018 35.4648L83.317 35.976C85.4184 39.4341 87.4596 42.9223 89.5159 46.3954L95.6397 56.8599L96 57.4764L95.6397 58.1079C91.6473 65.1293 87.5797 72.1207 83.5122 79.112L83.1519 79.7435H82.4465L70.3339 79.6232C66.2964 79.5932 62.2589 79.4879 58.2214 79.4127L57.681 79.3977L57.4409 78.9466L51.6022 68.3168L45.8836 57.6117L45.8086 57.4613L45.8836 57.326C47.0994 55.3564 48.3602 53.4018 49.606 51.4473C48.5403 53.5071 47.4746 55.5669 46.3789 57.6117V57.326L52.7729 67.6402L59.0469 78.0145L58.2514 77.5634C62.2889 77.4882 66.3264 77.383 70.3639 77.3529L82.4765 77.2326L81.4109 77.8491C85.4184 70.8276 89.4259 63.8062 93.5084 56.8299V58.0928L87.5197 47.5531C85.5384 44.0349 83.5422 40.5167 81.606 36.9684L82.4765 37.4796L70.3639 37.239C66.3264 37.1789 62.2889 37.0586 58.2514 36.9082L58.6266 36.6827C56.5403 40.0355 54.484 43.3583 52.3677 46.651Z" fill="#001E64"/>
<path d="M57.9066 36.6821L52.3682 26.3379L58.537 36.3062C58.6421 36.4866 58.5971 36.7122 58.4169 36.8174C58.2518 36.9227 58.0117 36.8776 57.9066 36.6971C57.9216 36.6971 57.9066 36.6821 57.9066 36.6821Z" fill="#001E64"/>
<path d="M83.5577 77.8633L90.2819 92.1016L81.3213 79.1563L83.5577 77.8633Z" fill="#001E64"/>
<path d="M81.6514 36.0356L83.9628 33.8555L83.2424 36.9527L81.6514 36.0356Z" fill="#001E64"/>
<path d="M14.9346 26.2461L22.5143 33.8389H51.7376" stroke="#001E64" stroke-width="0.9813" stroke-miterlimit="10"/>
<path d="M11.8125 27.5387C14.2579 27.5387 16.2403 25.5529 16.2403 23.1034C16.2403 20.6538 14.2579 18.668 11.8125 18.668C9.36714 18.668 7.38477 20.6538 7.38477 23.1034C7.38477 25.5529 9.36714 27.5387 11.8125 27.5387Z" stroke="#001E64" stroke-width="0.9813" stroke-miterlimit="10"/>
<path d="M8.28516 40.9199L12.6379 45.2651H51.7373" stroke="#001E64" stroke-width="0.9813" stroke-miterlimit="10"/>
<path d="M5.16312 42.2282C7.60851 42.2282 9.59089 40.2424 9.59089 37.7928C9.59089 35.3432 7.60851 33.3574 5.16312 33.3574C2.71773 33.3574 0.735352 35.3432 0.735352 37.7928C0.735352 40.2424 2.71773 42.2282 5.16312 42.2282Z" stroke="#001E64" stroke-width="0.9813" stroke-miterlimit="10"/>
<path d="M51.7376 68.1484H22.5143L14.9346 75.7412" stroke="#001E64" stroke-width="0.9813" stroke-miterlimit="10"/>
<path d="M11.8125 83.3044C14.2579 83.3044 16.2403 81.3186 16.2403 78.869C16.2403 76.4194 14.2579 74.4336 11.8125 74.4336C9.36714 74.4336 7.38477 76.4194 7.38477 78.869C7.38477 81.3186 9.36714 83.3044 11.8125 83.3044Z" stroke="#001E64" stroke-width="0.9813" stroke-miterlimit="10"/>
<path d="M51.7373 56.707H12.6379L8.28516 61.0672" stroke="#001E64" stroke-width="0.9813" stroke-miterlimit="10"/>
<path d="M5.16312 68.6305C7.60851 68.6305 9.59089 66.6447 9.59089 64.1951C9.59089 61.7456 7.60851 59.7598 5.16312 59.7598C2.71773 59.7598 0.735352 61.7456 0.735352 64.1951C0.735352 66.6447 2.71773 68.6305 5.16312 68.6305Z" stroke="#001E64" stroke-width="0.9813" stroke-miterlimit="10"/>
</g>
<defs>
<linearGradient id="paint0_linear" x1="33.5104" y1="84.0132" x2="53.347" y2="84.0132" gradientUnits="userSpaceOnUse">
<stop stop-color="white"/>
<stop offset="1" stop-color="white" stop-opacity="0"/>
</linearGradient>
<clipPath id="clip0">
<rect width="96" height="94.5564" fill="white" transform="translate(0 0.25)"/>
</clipPath>
</defs>
</svg>
