<svg width="96" height="107" viewBox="0 0 96 107" fill="none" xmlns="http://www.w3.org/2000/svg">
<g clip-path="url(#clip0)">
<path d="M78.0266 61.3031L76.193 40.3901C76.1023 39.3363 75.1764 38.555 74.1234 38.6459L73.9419 38.664C70.2021 38.9911 67.4427 42.2797 67.7694 46.0226L68.4048 53.1995C68.4048 53.1995 67.3156 56.8334 68.0236 64.9188" stroke="#001E64" stroke-width="0.9813" stroke-miterlimit="10"/>
<path d="M50.3051 43.8606L47.945 16.9699C47.7271 14.517 45.5668 12.7001 43.1159 12.9181C40.6651 13.1362 38.8497 15.2983 39.0675 17.7512L41.6818 47.6762" stroke="#001E64" stroke-width="0.9813" stroke-miterlimit="10"/>
<path d="M59.1644 43.0791L56.3141 10.3742C56.0963 7.92134 53.9359 6.1044 51.4851 6.32243C49.0343 6.54046 47.2188 8.70262 47.4367 11.1555L50.2869 43.8604" stroke="#001E64" stroke-width="0.9813" stroke-miterlimit="10"/>
<path d="M68.114 43.2247L65.6813 15.4074C65.4635 12.9545 63.3031 11.1376 60.8523 11.3556C58.4014 11.5737 56.586 13.7358 56.8039 16.1887L59.1639 43.0794" stroke="#001E64" stroke-width="0.9813" stroke-miterlimit="10"/>
<path d="M67.915 81.9805L69.8939 104.547" stroke="#001E64" stroke-width="0.9813" stroke-miterlimit="10"/>
<path d="M41.6998 47.657L39.7936 25.7629C39.5758 23.31 37.4154 21.4931 34.9646 21.7111C32.5137 21.9291 30.6983 24.0913 30.9162 26.5442L33.367 54.6522L34.2747 65.1178C34.7649 70.6958 37.3065 75.6197 41.0826 79.1809L43.4971 106.853" stroke="#001E64" stroke-width="0.9813" stroke-miterlimit="10"/>
<path d="M78.0262 61.3027C78.7524 69.5516 75.0126 78.8725 62.8311 85.0865" stroke="#001E64" stroke-width="0.9813" stroke-miterlimit="10"/>
<path d="M43.2254 50.7114C45.3858 46.5143 47.6188 42.3353 49.8517 38.1745L49.9788 37.9201L50.3056 37.902C55.1891 37.7203 60.0726 37.5931 64.9561 37.5022L79.6067 37.2115L80.2784 37.1934L80.6596 37.8111C83.2012 41.9901 85.6702 46.2054 88.1574 50.4025L95.5643 63.0484L96 63.7933L95.5643 64.5565C90.7353 73.0416 85.8154 81.4903 80.8956 89.9391L80.4599 90.7022H79.6067L64.9561 90.5569C60.0726 90.5205 55.1891 90.3933 50.3056 90.3025L49.6521 90.2843L49.3616 89.7392L42.2996 76.8935L35.3828 63.9569L35.292 63.7752L35.3828 63.6116C36.8533 61.2315 38.3782 58.8694 39.885 56.5074C38.5961 58.9966 37.3071 61.4858 35.9819 63.9569V63.6116L43.7156 76.0758L51.3041 88.6127L50.3419 88.0676C55.2254 87.9768 60.1089 87.8496 64.9924 87.8133L79.643 87.6679L78.3359 88.4129C83.1831 79.9278 88.0303 71.4427 92.9682 63.0121V64.5383L85.7247 51.8015C83.3283 47.5499 80.9138 43.2983 78.5719 39.0103L79.6248 39.6281L64.9743 39.3373C60.0908 39.2647 55.2073 39.1193 50.3238 38.9376L50.7776 38.6651C48.2723 42.7169 45.7852 46.7323 43.2254 50.7114Z" fill="#001E64"/>
<path d="M49.9245 38.6646L43.2256 26.1641L50.687 38.2104C50.8141 38.4284 50.7596 38.7009 50.5418 38.8281C50.3239 38.9553 50.0516 38.9008 49.9245 38.6828C49.9427 38.6828 49.9245 38.6646 49.9245 38.6646Z" fill="#001E64"/>
<path d="M80.5689 88.666L84.0727 96.9513L78.6445 89.7744L80.5689 88.666Z" fill="#001E64"/>
<path d="M78.6445 37.8831L90.4993 19.5684L80.5689 38.9914L78.6445 37.8831Z" fill="#001E64"/>
<path d="M78.0266 61.3031L76.193 40.3901C76.1023 39.3363 75.1764 38.555 74.1234 38.6459L73.9419 38.664C70.2021 38.9911 67.4427 42.2797 67.7694 46.0226L68.4048 53.1995C68.4048 53.1995 67.3156 56.8334 68.0236 64.9188" stroke="#001E64" stroke-width="0.9813" stroke-miterlimit="10"/>
<path d="M50.3051 43.8606L47.945 16.9699C47.7271 14.517 45.5668 12.7001 43.1159 12.9181C40.6651 13.1362 38.8497 15.2983 39.0675 17.7512L41.6818 47.6762" stroke="#001E64" stroke-width="0.9813" stroke-miterlimit="10"/>
<path d="M59.1644 43.0791L56.3141 10.3742C56.0963 7.92134 53.9359 6.1044 51.4851 6.32243C49.0343 6.54046 47.2188 8.70262 47.4367 11.1555L50.2869 43.8604" stroke="#001E64" stroke-width="0.9813" stroke-miterlimit="10"/>
<path d="M68.114 43.2247L65.6813 15.4074C65.4635 12.9545 63.3031 11.1376 60.8523 11.3556C58.4014 11.5737 56.586 13.7358 56.8039 16.1887L59.1639 43.0794" stroke="#001E64" stroke-width="0.9813" stroke-miterlimit="10"/>
<path d="M67.915 81.9805L69.8939 104.547" stroke="#001E64" stroke-width="0.9813" stroke-miterlimit="10"/>
<path d="M41.6998 47.657L39.7936 25.7629C39.5758 23.31 37.4154 21.4931 34.9646 21.7111C32.5137 21.9291 30.6983 24.0913 30.9162 26.5442L33.367 54.6522L34.2747 65.1178C34.7649 70.6958 37.3065 75.6197 41.0826 79.1809L43.4971 106.853" stroke="#001E64" stroke-width="0.9813" stroke-miterlimit="10"/>
<path d="M78.0262 61.3027C78.7524 69.5516 75.0126 78.8725 62.8311 85.0865" stroke="#001E64" stroke-width="0.9813" stroke-miterlimit="10"/>
<path d="M11.0016 64.9383C11.7097 56.8348 10.6204 53.2191 10.6204 53.2191L11.2558 46.0422C11.5826 42.2993 8.82313 39.0106 5.08334 38.6836L4.9018 38.6654C3.84885 38.5745 2.92298 39.3558 2.83221 40.4096L0.980469 61.3044" stroke="#001E64" stroke-width="0.9813" stroke-miterlimit="10"/>
<path d="M37.3069 47.6586L39.9211 17.7336C40.139 15.2807 38.3235 13.1186 35.8727 12.9006C33.4219 12.6825 31.2615 14.4995 31.0437 16.9523L28.6836 43.843" stroke="#001E64" stroke-width="0.9813" stroke-miterlimit="10"/>
<path d="M28.7017 43.8604L31.5519 11.1555C31.7698 8.70262 29.9543 6.54046 27.5035 6.32243C25.0527 6.1044 22.8923 7.92134 22.6744 10.3742L19.8242 43.0791" stroke="#001E64" stroke-width="0.9813" stroke-miterlimit="10"/>
<path d="M19.8427 43.0794L22.2027 16.1887C22.4206 13.7358 20.6051 11.5737 18.1543 11.3556C15.7035 11.1376 13.5431 12.9545 13.3253 15.4074L10.8926 43.2247" stroke="#001E64" stroke-width="0.9813" stroke-miterlimit="10"/>
<path d="M9.11328 104.547L11.0921 81.9805" stroke="#001E64" stroke-width="0.9813" stroke-miterlimit="10"/>
<path d="M35.4912 106.855L37.9057 79.1828C41.6818 75.6216 44.2234 70.7159 44.7136 65.1197L45.6213 54.6542L48.0722 26.5461C48.29 24.0932 46.4746 21.9311 44.0237 21.7131C41.5729 21.495 39.4125 23.312 39.1947 25.7648L37.2885 47.6589" stroke="#001E64" stroke-width="0.9813" stroke-miterlimit="10"/>
<path d="M0.980084 61.3027C0.253912 69.5516 3.9937 78.8725 16.1752 85.0865" stroke="#001E64" stroke-width="0.9813" stroke-miterlimit="10"/>
<path opacity="0.35" d="M17.7544 20.2409C20.2109 20.2409 22.2022 18.2479 22.2022 15.7894C22.2022 13.3309 20.2109 11.3379 17.7544 11.3379C15.298 11.3379 13.3066 13.3309 13.3066 15.7894C13.3066 18.2479 15.298 20.2409 17.7544 20.2409Z" fill="url(#paint0_linear)"/>
<path opacity="0.35" d="M22.7651 79.0006C11.6546 78.0376 3.43072 68.2262 4.41105 57.1065C4.55628 55.4167 4.91937 53.7997 5.44584 52.2734C3.01317 55.2896 1.43374 59.0324 1.07065 63.1751C0.0903221 74.2947 8.29607 84.1062 19.4247 85.0692C28.8467 85.8868 37.343 80.0908 40.284 71.5148C36.1992 76.6022 29.7363 79.6183 22.7651 79.0006Z" fill="url(#paint1_linear)"/>
<path opacity="0.35" d="M27.1402 15.2077C29.5966 15.2077 31.588 13.2147 31.588 10.7562C31.588 8.29769 29.5966 6.30469 27.1402 6.30469C24.6837 6.30469 22.6924 8.29769 22.6924 10.7562C22.6924 13.2147 24.6837 15.2077 27.1402 15.2077Z" fill="url(#paint2_linear)"/>
<path opacity="0.35" d="M35.4917 21.7858C37.9482 21.7858 39.9396 19.7928 39.9396 17.3343C39.9396 14.8758 37.9482 12.8828 35.4917 12.8828C33.0353 12.8828 31.0439 14.8758 31.0439 17.3343C31.0439 19.7928 33.0353 21.7858 35.4917 21.7858Z" fill="url(#paint3_linear)"/>
<path d="M43.2254 50.7114C45.3858 46.5143 47.6188 42.3353 49.8517 38.1745L49.9788 37.9201L50.3056 37.902C55.1891 37.7203 60.0726 37.5931 64.9561 37.5022L79.6067 37.2115L80.2784 37.1934L80.6596 37.8111C83.2012 41.9901 85.6702 46.2054 88.1574 50.4025L95.5643 63.0484L96 63.7933L95.5643 64.5565C90.7353 73.0416 85.8154 81.4903 80.8956 89.9391L80.4599 90.7022H79.6067L64.9561 90.5569C60.0726 90.5205 55.1891 90.3933 50.3056 90.3025L49.6521 90.2843L49.3616 89.7392L42.2996 76.8935L35.3828 63.9569L35.292 63.7752L35.3828 63.6116C36.8533 61.2315 38.3782 58.8694 39.885 56.5074C38.5961 58.9966 37.3071 61.4858 35.9819 63.9569V63.6116L43.7156 76.0759L51.3041 88.6127L50.3419 88.0676C55.2254 87.9768 60.1089 87.8496 64.9924 87.8133L79.643 87.6679L78.3359 88.4129C83.1831 79.9278 88.0303 71.4427 92.9682 63.0121V64.5383L85.7247 51.8015C83.3283 47.5499 80.9138 43.2983 78.5719 39.0103L79.6248 39.6281L64.9743 39.3373C60.0908 39.2647 55.2073 39.1193 50.3238 38.9376L50.7776 38.6651C48.2723 42.7169 45.7852 46.7323 43.2254 50.7114Z" fill="#001E64"/>
<path d="M49.9245 38.6646L43.2256 26.1641L50.687 38.2104C50.8141 38.4284 50.7596 38.7009 50.5418 38.8281C50.3239 38.9553 50.0516 38.9008 49.9245 38.6828C49.9427 38.6828 49.9245 38.6646 49.9245 38.6646Z" fill="#001E64"/>
<path d="M80.5692 88.6667L84.0548 96.9519L78.6267 89.775C78.2455 89.2844 78.3544 88.5758 78.8446 88.1943C79.3347 87.8127 80.0427 87.9217 80.424 88.4123C80.4784 88.485 80.5329 88.5758 80.5692 88.6667Z" fill="#001E64"/>
<path d="M78.6443 37.8826L81.4401 35.248L80.5687 38.9909C80.4235 39.6087 79.7881 40.0084 79.1708 39.8631C78.5536 39.7177 78.1542 39.0818 78.2994 38.464C78.3539 38.2278 78.4809 38.028 78.6443 37.8826Z" fill="#001E64"/>
</g>
<defs>
<linearGradient id="paint0_linear" x1="13.2871" y1="15.4019" x2="22.146" y2="16.1767" gradientUnits="userSpaceOnUse">
<stop offset="0.000966495" stop-color="white"/>
<stop offset="0.9996" stop-color="white" stop-opacity="0"/>
</linearGradient>
<linearGradient id="paint1_linear" x1="0.976071" y1="68.7102" x2="40.2767" y2="68.7102" gradientUnits="userSpaceOnUse">
<stop stop-color="white"/>
<stop offset="0.999" stop-color="white" stop-opacity="0"/>
</linearGradient>
<linearGradient id="paint2_linear" x1="22.6648" y1="10.3704" x2="31.5239" y2="11.1452" gradientUnits="userSpaceOnUse">
<stop offset="0.000966495" stop-color="white"/>
<stop offset="0.9996" stop-color="white" stop-opacity="0"/>
</linearGradient>
<linearGradient id="paint3_linear" x1="31.0241" y1="16.9526" x2="39.8829" y2="17.7273" gradientUnits="userSpaceOnUse">
<stop offset="0.000966495" stop-color="white"/>
<stop offset="0.9996" stop-color="white" stop-opacity="0"/>
</linearGradient>
<clipPath id="clip0">
<rect width="96" height="106.927" fill="white"/>
</clipPath>
</defs>
</svg>
