<svg width="97" height="99" viewBox="0 0 97 99" fill="none" xmlns="http://www.w3.org/2000/svg">
<path opacity="0.35" d="M92.5718 28.6707C86.2937 35.133 75.9835 35.0282 69.5693 28.4262C63.1551 21.8243 63.019 11.2402 69.2971 4.77793C73.7717 0.16704 80.2879 -1.09048 85.9875 0.935521L78.2803 9.21417L79.6584 17.9818L88.1993 19.3966L96.2638 11.4847C98.2714 17.3531 97.0464 24.0598 92.5718 28.6707Z" fill="url(#paint0_linear)"/>
<path d="M16.4866 76.1245L19.9744 78.6046L62.4236 27.6053L61.726 26.9417L16.4866 76.1245Z" fill="url(#paint1_linear)"/>
<path d="M63.3932 67.2695C63.3932 67.2695 87.7058 94.6904 88.8287 93.7996C89.9686 92.9089 91.67 93.8171 91.67 93.8171L89.3902 96.0178L87.1273 96.8561L83.9968 96.2797L82.3465 94.9873L58.6294 72.1599L63.3932 67.2695Z" fill="url(#paint2_linear)"/>
<path d="M91.9762 93.5024L90.1728 95.3537C88.1822 97.3972 84.8815 97.4321 82.7548 95.3712L58.6294 72.1421L69.365 61.1213L91.9933 85.8874C94.0009 88.0881 93.9668 91.4589 91.9762 93.5024Z" stroke="white" stroke-width="0.9813" stroke-miterlimit="10"/>
<path d="M62.0492 68.6491L65.2988 65.3132L22.6625 20.9508L22.3392 15.6937L7.84357 5.52881L4.47485 8.98698L14.3768 23.8676L19.498 24.1994L36.5117 41.4379" stroke="white" stroke-width="0.9813" stroke-miterlimit="10"/>
<path d="M74.8945 32.5481C80.475 34.7837 87.0933 33.8755 91.8401 29.4393C96.7911 24.8284 98.3053 17.7723 96.1956 11.5371L88.1992 19.4141L79.6583 17.9994L78.2802 9.23168L85.9534 1.0229C79.8795 -1.14282 73.0059 0.411606 68.5143 5.49407C64.1929 10.3844 63.2911 17.1785 65.4859 22.8897L16.6736 75.4259C12.4202 74.0636 7.55425 75.3735 4.32164 79.0937C1.24216 82.6392 0.510575 87.3898 1.92271 91.3195L6.80564 86.0624L12.6073 86.8134L13.3389 92.7692L8.23479 97.7817C12.0459 99.2314 16.6906 98.4804 20.1444 95.3191C23.7683 92.0007 25.0443 87.0055 23.7173 82.6392L67.4425 39.8312" stroke="white" stroke-width="0.9813" stroke-linecap="round"/>
<path d="M65.0435 47.2188C62.6446 43.3939 60.3137 39.534 57.9829 35.6741L58.4082 35.9361C53.8315 36.1108 49.2548 36.233 44.6781 36.3203L30.9481 36.5998L31.9349 36.0234C29.7401 40.1453 27.4773 44.2322 25.2315 48.3191L18.443 60.5624V59.0953C23.0878 67.1993 27.6304 75.3557 32.1731 83.5121L30.9651 82.796L44.6952 82.9358C49.2718 82.9707 53.8485 83.0929 58.4252 83.1803L57.5235 83.7042L64.6352 71.653L71.883 59.6717V60.0036C70.641 57.6282 69.4331 55.2355 68.2251 52.8427C69.6372 55.1132 71.0664 57.3837 72.4445 59.6717L72.5296 59.8289L72.4445 60.0036L65.9623 72.439L59.3439 84.7871L59.0717 85.3111L58.4592 85.3285C53.8825 85.4159 49.3059 85.5381 44.7292 85.573L30.9991 85.7128H30.1995L29.7912 84.9792C25.1804 76.8578 20.5697 68.7538 16.0441 60.5799L15.5847 59.8114L15.993 59.0953L22.9346 46.9394C25.2655 42.9048 27.5794 38.8354 29.9613 34.8358L30.3186 34.2419L30.9481 34.2594L44.6781 34.5389C49.2548 34.6087 53.8315 34.7484 58.4082 34.9231L58.7144 34.9406L58.8335 35.1851C60.9262 39.1847 63.0189 43.1843 65.0435 47.2188Z" fill="#E3CBFD"/>
<path d="M58.0507 35.2029L65.0434 23.6233L58.7653 35.6396C58.6632 35.8491 58.408 35.919 58.2039 35.8142C57.9997 35.7094 57.9316 35.4474 58.0337 35.2378C58.0337 35.2204 58.0337 35.2204 58.0507 35.2029Z" fill="#E3CBFD"/>
<path d="M31.6795 84.6651L26.7795 91.6688L30.2333 83.8093L31.6795 84.6651Z" fill="#E3CBFD"/>
<path d="M81.3086 59.8292L72.1382 60.2658V59.3926L81.3086 59.8292Z" fill="#E3CBFD"/>
<path d="M16.4866 76.1247L19.9744 78.6048L62.4236 27.6056L61.726 26.9419L16.4866 76.1247Z" fill="url(#paint3_linear)"/>
<path d="M74.8945 32.5481C80.475 34.7837 87.0933 33.8755 91.8401 29.4393C96.7911 24.8284 98.3053 17.7723 96.1956 11.5371L88.1992 19.4141L79.6583 17.9994L78.2802 9.23168L85.9534 1.0229C79.8795 -1.14282 73.0059 0.411606 68.5143 5.49407C64.1929 10.3844 63.2911 17.1785 65.4859 22.8897L16.6736 75.4259C12.4202 74.0636 7.55425 75.3735 4.32164 79.0937C1.24216 82.6392 0.510575 87.3898 1.92271 91.3195L6.80564 86.0624L12.6073 86.8134L13.3389 92.7692L8.23479 97.7817C12.0459 99.2314 16.6906 98.4804 20.1444 95.3191C23.7683 92.0007 25.0443 87.0055 23.7173 82.6392L67.4425 39.8312" stroke="white" stroke-width="0.9813" stroke-linecap="round"/>
<path d="M45.3588 44.5642L22.6625 20.9508L22.3392 15.6937L7.84357 5.52881L4.47485 8.98698L14.3768 23.8676L19.4979 24.1994L36.5116 41.4379" stroke="white" stroke-width="0.9813" stroke-miterlimit="10"/>
<defs>
<linearGradient id="paint0_linear" x1="69.0503" y1="5.65936" x2="92.9695" y2="28.8932" gradientUnits="userSpaceOnUse">
<stop stop-color="white"/>
<stop offset="1" stop-color="white" stop-opacity="0"/>
</linearGradient>
<linearGradient id="paint1_linear" x1="57.2022" y1="20.963" x2="17.6558" y2="86.2854" gradientUnits="userSpaceOnUse">
<stop stop-color="white"/>
<stop offset="1" stop-color="white" stop-opacity="0"/>
</linearGradient>
<linearGradient id="paint2_linear" x1="79.1118" y1="76.098" x2="70.6152" y2="90.1328" gradientUnits="userSpaceOnUse">
<stop stop-color="white"/>
<stop offset="1" stop-color="white" stop-opacity="0"/>
</linearGradient>
<linearGradient id="paint3_linear" x1="57.2022" y1="20.9633" x2="17.6558" y2="86.2857" gradientUnits="userSpaceOnUse">
<stop stop-color="white"/>
<stop offset="1" stop-color="white" stop-opacity="0"/>
</linearGradient>
</defs>
</svg>
