<svg width="97" height="100" viewBox="0 0 97 100" fill="none" xmlns="http://www.w3.org/2000/svg">
<g clip-path="url(#clip0)">
<path opacity="0.35" d="M82.4209 36.375C76.8406 42.1191 67.6761 42.0259 61.9748 36.1577C56.2734 30.2894 56.1525 20.8816 61.7328 15.1376C65.7101 11.0391 71.5022 9.92134 76.5683 11.7222L69.7177 19.0808L70.9426 26.8741L78.5343 28.1315L85.7026 21.099C87.4871 26.3152 86.3982 32.2766 82.4209 36.375Z" fill="url(#paint0_linear)"/>
<path d="M14.791 78.5548L17.8912 80.7593L55.6228 35.4278L55.0027 34.8379L14.791 78.5548Z" fill="url(#paint1_linear)"/>
<path d="M56.4854 70.6836C56.4854 70.6836 78.096 95.057 79.0941 94.2653C80.1073 93.4735 81.6196 94.2808 81.6196 94.2808L79.5931 96.2369L77.5818 96.982L74.7992 96.4697L73.3323 95.3209L52.251 75.0304L56.4854 70.6836Z" fill="url(#paint2_linear)"/>
<path d="M81.8918 94.0011L80.2888 95.6467C78.5194 97.4631 75.5856 97.4941 73.6952 95.6622L52.251 75.0147L61.7935 65.2188L81.9069 87.2324C83.6914 89.1885 83.6612 92.1847 81.8918 94.0011Z" stroke="#001E64" stroke-width="0.9813" stroke-miterlimit="10"/>
<path d="M55.291 71.9101L58.1795 68.9449L20.2816 29.5128L19.9943 24.8399L7.10956 15.8047L4.11523 18.8785L12.9167 32.1054L17.4687 32.4003L32.5916 47.723" stroke="#001E64" stroke-width="0.9813" stroke-miterlimit="10"/>
<path d="M66.7082 39.8215C71.6685 41.8086 77.5513 41.0014 81.7706 37.0581C86.1714 32.9597 87.5173 26.6878 85.6421 21.1456L78.5343 28.1471L70.9426 26.8896L69.7177 19.0963L76.5381 11.7998C71.1392 9.87481 65.0296 11.2565 61.0371 15.7741C57.1959 20.121 56.3944 26.16 58.3453 31.2365L14.9577 77.934C11.177 76.7231 6.85188 77.8875 3.97854 81.1942C1.2413 84.3456 0.591015 88.5683 1.84621 92.0613L6.18648 87.3884L11.3434 88.056L11.9937 93.3498L7.4568 97.8053C10.8443 99.0939 14.9729 98.4263 18.0428 95.6164C21.264 92.6668 22.3982 88.2268 21.2186 84.3456L60.0844 46.2952" stroke="#001E64" stroke-width="0.9813" stroke-linecap="round"/>
<path d="M57.9524 52.8608C55.8201 49.461 53.7483 46.0301 51.6764 42.5992L52.0545 42.832C47.9865 42.9873 43.9184 43.096 39.8503 43.1736L27.6462 43.422L28.5233 42.9097C26.5725 46.5734 24.5611 50.2062 22.5649 53.8389L16.5309 64.7215V63.4175C20.6594 70.6208 24.6972 77.8708 28.735 85.1207L27.6613 84.4842L39.8655 84.6084C43.9335 84.6394 48.0016 84.7481 52.0696 84.8257L51.2681 85.2914L57.5895 74.5796L64.0318 63.9298V64.2248C62.9278 62.1134 61.8541 59.9866 60.7804 57.8597C62.0356 59.8779 63.3059 61.8961 64.5309 63.9298L64.6065 64.0695L64.5309 64.2248L58.7691 75.2782L52.8863 86.254L52.6443 86.7197L52.0999 86.7352C48.0318 86.8128 43.9638 86.9215 39.8957 86.9526L27.6916 87.0768H26.9808L26.6178 86.4247C22.5195 79.2059 18.4212 72.0025 14.3986 64.7371L13.9902 64.054L14.3532 63.4175L20.5233 52.6125C22.5951 49.0263 24.6519 45.4091 26.7691 41.854L27.0866 41.3262L27.6462 41.3417L39.8503 41.5901C43.9184 41.6522 47.9865 41.7764 52.0545 41.9316L52.3267 41.9472L52.4326 42.1645C54.2927 45.7196 56.1528 49.2747 57.9524 52.8608Z" fill="#001E64"/>
<path d="M51.7365 42.1814L57.952 31.8887L52.3717 42.5695C52.2809 42.7558 52.0541 42.8179 51.8726 42.7247C51.6911 42.6316 51.6306 42.3987 51.7214 42.2124C51.7214 42.1969 51.7214 42.1969 51.7365 42.1814Z" fill="#001E64"/>
<path d="M28.2958 86.1455L23.9404 92.3708L27.0104 85.3848L28.2958 86.1455Z" fill="#001E64"/>
<path d="M72.41 64.0717L64.2588 64.4598V63.6836L72.41 64.0717Z" fill="#001E64"/>
<path d="M14.791 78.5548L17.8912 80.7593L55.6228 35.4278L55.0027 34.8379L14.791 78.5548Z" fill="url(#paint3_linear)"/>
<path d="M66.7082 39.8215C71.6685 41.8086 77.5513 41.0014 81.7706 37.0581C86.1714 32.9597 87.5173 26.6878 85.6421 21.1456L78.5343 28.1471L70.9426 26.8896L69.7177 19.0963L76.5381 11.7998C71.1392 9.87481 65.0296 11.2565 61.0371 15.7741C57.1959 20.121 56.3944 26.16 58.3453 31.2365L14.9577 77.934C11.177 76.7231 6.85188 77.8875 3.97854 81.1942C1.2413 84.3456 0.591015 88.5683 1.84621 92.0613L6.18648 87.3884L11.3434 88.056L11.9937 93.3498L7.4568 97.8053C10.8443 99.0939 14.9729 98.4263 18.0428 95.6164C21.264 92.6668 22.3982 88.2268 21.2186 84.3456L60.0844 46.2952" stroke="#001E64" stroke-width="0.9813" stroke-linecap="round"/>
<path d="M40.4555 50.5019L20.2816 29.5128L19.9943 24.8399L7.10956 15.8047L4.11523 18.8785L12.9167 32.1054L17.4687 32.4003L32.5916 47.723" stroke="#001E64" stroke-width="0.9813" stroke-miterlimit="10"/>
</g>
<defs>
<linearGradient id="paint0_linear" x1="61.5134" y1="15.921" x2="82.7744" y2="36.5728" gradientUnits="userSpaceOnUse">
<stop stop-color="white"/>
<stop offset="1" stop-color="white" stop-opacity="0"/>
</linearGradient>
<linearGradient id="paint1_linear" x1="50.9817" y1="29.5237" x2="15.8303" y2="87.5865" gradientUnits="userSpaceOnUse">
<stop stop-color="white"/>
<stop offset="1" stop-color="white" stop-opacity="0"/>
</linearGradient>
<linearGradient id="paint2_linear" x1="70.4571" y1="78.5309" x2="62.9047" y2="91.0059" gradientUnits="userSpaceOnUse">
<stop stop-color="white"/>
<stop offset="1" stop-color="white" stop-opacity="0"/>
</linearGradient>
<linearGradient id="paint3_linear" x1="50.9817" y1="29.5237" x2="15.8303" y2="87.5865" gradientUnits="userSpaceOnUse">
<stop stop-color="white"/>
<stop offset="1" stop-color="white" stop-opacity="0"/>
</linearGradient>
<clipPath id="clip0">
<rect width="96" height="98.9529" fill="white" transform="translate(0.5 0.25)"/>
</clipPath>
</defs>
</svg>
