<svg width="24" height="32" viewBox="0 0 24 32" fill="none" xmlns="http://www.w3.org/2000/svg">
<path d="M11.7119 30.6914C17.787 30.6914 22.7119 25.7665 22.7119 19.6914C22.7119 13.6163 17.787 8.69141 11.7119 8.69141C5.63678 8.69141 0.711914 13.6163 0.711914 19.6914C0.711914 25.7665 5.63678 30.6914 11.7119 30.6914Z" stroke="#1E1F2D"/>
<path fill-rule="evenodd" clip-rule="evenodd" d="M17.2089 14.8801C17.5712 15.1619 17.6366 15.684 17.3549 16.0464L10.8932 24.3573C10.7492 24.5423 10.5339 24.6581 10.3001 24.6759C10.0663 24.6937 9.83593 24.6119 9.66568 24.4507L6.15425 21.1263C5.82093 20.8108 5.80654 20.2847 6.1221 19.9514C6.43767 19.6181 6.96369 19.6037 7.297 19.9193L10.1432 22.6139L16.0426 15.0261C16.3243 14.6637 16.8465 14.5984 17.2089 14.8801Z" fill="#1E1F2D"/>
</svg>
